<?xml version="1.0" encoding="UTF-8" standalone="no"?>
<svg
   xmlns:dc="http://purl.org/dc/elements/1.1/"
   xmlns:cc="http://creativecommons.org/ns#"
   xmlns:rdf="http://www.w3.org/1999/02/22-rdf-syntax-ns#"
   xmlns:svg="http://www.w3.org/2000/svg"
   xmlns="http://www.w3.org/2000/svg"
   xmlns:sodipodi="http://sodipodi.sourceforge.net/DTD/sodipodi-0.dtd"
   xmlns:inkscape="http://www.inkscape.org/namespaces/inkscape"
   version="1.1"
   id="Layer_1"
   x="0px"
   y="0px"
   viewBox="0 0 512 512"
   style="enable-background:new 0 0 512 512;"
   xml:space="preserve"
   sodipodi:docname="esperar.svg"
   inkscape:version="1.0.2 (e86c870879, 2021-01-15)"><metadata
   id="metadata55"><rdf:RDF><cc:Work
       rdf:about=""><dc:format>image/svg+xml</dc:format><dc:type
         rdf:resource="http://purl.org/dc/dcmitype/StillImage" /><dc:title></dc:title></cc:Work></rdf:RDF></metadata><defs
   id="defs53" /><sodipodi:namedview
   pagecolor="#ffffff"
   bordercolor="#666666"
   borderopacity="1"
   objecttolerance="10"
   gridtolerance="10"
   guidetolerance="10"
   inkscape:pageopacity="0"
   inkscape:pageshadow="2"
   inkscape:window-width="1920"
   inkscape:window-height="1016"
   id="namedview51"
   showgrid="false"
   inkscape:zoom="0.8359375"
   inkscape:cx="247.48384"
   inkscape:cy="262.53162"
   inkscape:window-x="0"
   inkscape:window-y="1051"
   inkscape:window-maximized="1"
   inkscape:current-layer="Layer_1"
   inkscape:document-rotation="0" />




<g
   id="g20">
</g>
<g
   id="g22">
</g>
<g
   id="g24">
</g>
<g
   id="g26">
</g>
<g
   id="g28">
</g>
<g
   id="g30">
</g>
<g
   id="g32">
</g>
<g
   id="g34">
</g>
<g
   id="g36">
</g>
<g
   id="g38">
</g>
<g
   id="g40">
</g>
<g
   id="g42">
</g>
<g
   id="g44">
</g>
<g
   id="g46">
</g>
<g
   id="g48">
</g>
<g
   id="g848"
   transform="rotate(180,256,256)"><circle
     style="fill:#c6d6cc;fill-opacity:1"
     cx="-256"
     cy="-256"
     r="256"
     id="circle2"
     transform="scale(-1)" /><path
     d="m 153.49,127.485 h 17.683 l 0.002,31.559 c 0,31.639 17.358,60.726 48.876,81.901 3.988,2.682 6.466,8.45 6.466,15.055 0,6.605 -2.478,12.373 -6.464,15.053 -31.52,21.178 -48.878,50.264 -48.88,81.904 v 31.558 H 153.49 c -5.518,0 -9.992,4.475 -9.992,9.993 0,5.518 4.475,9.992 9.992,9.992 h 205.02 c 5.518,0 9.992,-4.475 9.992,-9.992 0,-5.519 -4.475,-9.993 -9.992,-9.993 h -17.683 v -31.558 c 0,-31.642 -17.357,-60.729 -48.875,-81.903 -3.989,-2.681 -6.467,-8.448 -6.467,-15.054 0,-6.605 2.478,-12.373 6.466,-15.053 31.519,-21.176 48.876,-50.263 48.876,-81.903 v -31.559 h 17.683 c 5.518,0 9.992,-4.475 9.992,-9.993 0,-5.519 -4.475,-9.992 -9.992,-9.992 H 153.49 c -5.518,0 -9.992,4.474 -9.992,9.992 0,5.519 4.475,9.993 9.992,9.993 z m 112.502,166.653 c 0,5.518 -4.474,9.993 -9.992,9.993 -5.518,0 -9.992,-4.475 -9.992,-9.993 v -17.664 c 0,-5.519 4.474,-9.992 9.992,-9.992 5.518,0 9.992,4.474 9.992,9.992 z m -2.925,-63.594 c -1.858,1.857 -4.436,2.927 -7.064,2.927 -2.628,0 -5.206,-1.069 -7.064,-2.927 -1.868,-1.859 -2.928,-4.438 -2.928,-7.065 0,-2.627 1.06,-5.206 2.928,-7.064 1.858,-1.858 4.436,-2.928 7.064,-2.928 2.628,0 5.206,1.069 7.064,2.928 1.859,1.858 2.928,4.437 2.928,7.064 0,2.627 -1.068,5.205 -2.928,7.065 z M 317.56,127.388 c -8.152,30.906 -50.161,64.536 -55.405,68.635 -3.614,2.826 -8.692,2.828 -12.309,0 -5.244,-4.1 -47.252,-37.729 -55.404,-68.635 z"
     id="path2"
     style="fill:#666a91;fill-opacity:1" /></g></svg>
