<?xml version="1.0" encoding="UTF-8" standalone="no"?>
<svg
   xmlns:dc="http://purl.org/dc/elements/1.1/"
   xmlns:cc="http://creativecommons.org/ns#"
   xmlns:rdf="http://www.w3.org/1999/02/22-rdf-syntax-ns#"
   xmlns:svg="http://www.w3.org/2000/svg"
   xmlns="http://www.w3.org/2000/svg"
   xmlns:sodipodi="http://sodipodi.sourceforge.net/DTD/sodipodi-0.dtd"
   xmlns:inkscape="http://www.inkscape.org/namespaces/inkscape"
   version="1.0"
   width="1280.000000pt"
   height="1280.000000pt"
   viewBox="0 0 1280.000000 1280.000000"
   preserveAspectRatio="xMidYMid meet"
   id="svg8"
   sodipodi:docname="flechaizda.svg"
   inkscape:version="1.0.2 (e86c870879, 2021-01-15)">
  <defs
     id="defs12" />
  <sodipodi:namedview
     pagecolor="#ffffff"
     bordercolor="#666666"
     borderopacity="1"
     objecttolerance="10"
     gridtolerance="10"
     guidetolerance="10"
     inkscape:pageopacity="0"
     inkscape:pageshadow="2"
     inkscape:window-width="1920"
     inkscape:window-height="1016"
     id="namedview10"
     showgrid="false"
     inkscape:zoom="0.5015625"
     inkscape:cx="853.33333"
     inkscape:cy="853.33333"
     inkscape:window-x="0"
     inkscape:window-y="27"
     inkscape:window-maximized="1"
     inkscape:current-layer="svg8"
     inkscape:document-rotation="0" />
  <metadata
     id="metadata2">
Created by potrace 1.15, written by Peter Selinger 2001-2017
<rdf:RDF>
  <cc:Work
     rdf:about="">
    <dc:format>image/svg+xml</dc:format>
    <dc:type
       rdf:resource="http://purl.org/dc/dcmitype/StillImage" />
    <dc:title></dc:title>
  </cc:Work>
</rdf:RDF>
</metadata>
  <g
     transform="matrix(-0.1,0,0,0.1,1280.3823,0.13682598)"
     fill="#000000"
     stroke="none"
     id="g6"
     style="fill:#ff0000;fill-opacity:1">
    <path
       d="m 299,12786 c -120,-35 -207,-110 -263,-226 -28,-59 -31,-73 -30,-160 0,-79 5,-104 26,-150 13,-30 894,-1359 1956,-2953 L 3920,6400 1988,3503 C 926,1909 45,580 31,550 10,503 6,480 6,400 6,314 9,299 36,240 53,204 86,154 108,129 187,41 331,-11 455,5 c 51,6 811,383 6125,3040 5803,2901 6069,3036 6110,3082 56,63 98,154 106,229 13,121 -39,260 -125,336 -35,31 -1509,772 -6106,3070 l -6060,3030 -80,4 c -48,2 -98,-2 -126,-10 z M 6545,8883 c 2725,-1363 4955,-2480 4955,-2483 0,-8 -9912,-4962 -9917,-4957 -2,3 708,1073 1578,2378 870,1306 1594,2399 1608,2429 21,47 25,69 25,150 0,81 -4,103 -25,150 -14,30 -737,1123 -1607,2427 -870,1305 -1582,2375 -1582,2378 0,3 2,5 5,5 3,0 2235,-1115 4960,-2477 z"
       id="path4"
       style="fill:#ff0000;fill-opacity:1" />
  </g>
</svg>
