<?xml version="1.0" encoding="UTF-8" standalone="no"?>
<svg
   xmlns:dc="http://purl.org/dc/elements/1.1/"
   xmlns:cc="http://creativecommons.org/ns#"
   xmlns:rdf="http://www.w3.org/1999/02/22-rdf-syntax-ns#"
   xmlns:svg="http://www.w3.org/2000/svg"
   xmlns="http://www.w3.org/2000/svg"
   xmlns:sodipodi="http://sodipodi.sourceforge.net/DTD/sodipodi-0.dtd"
   xmlns:inkscape="http://www.inkscape.org/namespaces/inkscape"
   version="1.1"
   id="Layer_1"
   x="0px"
   y="0px"
   viewBox="0 0 512 512"
   style="enable-background:new 0 0 512 512;"
   xml:space="preserve"
   sodipodi:docname="pensar.svg"
   inkscape:version="1.0.2 (e86c870879, 2021-01-15)"><metadata
   id="metadata55"><rdf:RDF><cc:Work
       rdf:about=""><dc:format>image/svg+xml</dc:format><dc:type
         rdf:resource="http://purl.org/dc/dcmitype/StillImage" /><dc:title></dc:title></cc:Work></rdf:RDF></metadata><defs
   id="defs53" /><sodipodi:namedview
   pagecolor="#ffffff"
   bordercolor="#666666"
   borderopacity="1"
   objecttolerance="10"
   gridtolerance="10"
   guidetolerance="10"
   inkscape:pageopacity="0"
   inkscape:pageshadow="2"
   inkscape:window-width="1920"
   inkscape:window-height="1016"
   id="namedview51"
   showgrid="false"
   inkscape:zoom="0.8359375"
   inkscape:cx="247.48384"
   inkscape:cy="262.53162"
   inkscape:window-x="0"
   inkscape:window-y="1051"
   inkscape:window-maximized="1"
   inkscape:current-layer="Layer_1"
   inkscape:document-rotation="0" />



<g
   id="g862"><circle
     style="fill:#91667f;fill-opacity:1"
     cx="256"
     cy="256"
     r="256"
     id="circle2" /><path
     style="fill:#7f9166;fill-opacity:1"
     d="m 369.749,430.031 -19.94,-85.46 c 0,0 68.235,-65.651 60.586,-149.807 -7.654,-84.157 -92.45,-137.073 -178.521,-114.129 -86.071,22.941 -100.327,91.892 -100.731,103.204 -0.406,11.313 10.196,40.242 2.542,60.009 -7.651,19.767 -35.06,50.684 -32.513,59.93 2.555,9.241 26.138,10.836 26.138,10.836 0,0 0.278,8.942 -2.859,10.841 -3.137,1.896 -1.366,9.328 3.793,13.462 5.16,4.134 13.734,6.94 13.734,6.94 0,0 -9.886,2.233 -8.606,9.244 1.277,7.016 4.782,10.523 12.113,10.838 7.334,0.317 9.249,-3.179 10.52,0.646 1.274,3.82 2.075,4.139 2.075,4.139 0,0 -7.326,18.97 -0.949,32.993 6.382,14.028 16.257,14.039 27.738,11.163 11.479,-2.874 33.79,-9.249 33.79,-9.249 l 6.109,31.106 c 6.387,45.273 -24.444,68.547 -25.094,69.032 18.123,4.068 36.969,6.23 56.321,6.23 57.014,0 109.665,-18.645 152.211,-50.16 -4.102,-1.978 -37,-30.348 -38.461,-31.809 z"
     id="path4" /><g
     id="g10"
     style="fill:#6f7f59;fill-opacity:1">
	<path
   style="fill:#6f7f59;fill-opacity:1"
   d="m 159.24,407.649 c 6.351,10.062 15.347,9.805 25.632,7.229 11.479,-2.874 33.79,-9.249 33.79,-9.249 l 6.109,31.106 c 2.18,15.45 0.021,28.334 -3.788,38.629 l 0.003,-0.005 c 21.312,-30.409 5.595,-53.651 8.402,-65.19 2.807,-11.541 47.408,-22.455 56.762,-29.629 9.359,-7.174 16.061,-26.975 16.061,-26.975 0,0 -9.357,14.345 -19.334,23.077 -9.98,8.732 -87.482,31.497 -102.297,36.486 -14.068,4.736 -20.706,-4.531 -21.34,-5.479 z"
   id="path6" />
	<path
   style="fill:#6f7f59;fill-opacity:1"
   d="m 210.708,87.729 c 53.606,-19.639 117.096,-9.046 155.604,30.338 45.892,46.93 56.586,132.331 -23.555,222.698 l 26.99,89.266 -19.94,-85.46 c 0,0 68.235,-65.651 60.586,-149.807 -7.654,-84.157 -92.45,-137.073 -178.521,-114.129 -7.607,2.028 -14.641,4.419 -21.165,7.092 z"
   id="path8" />
</g><g
     id="g18">
	<path
   style="fill:#ffffff"
   d="m 299.795,267.013 v -9.726 l -4.223,-0.441 c -0.367,-1.26 -0.863,-2.46 -1.474,-3.591 l 2.804,-3.224 -6.878,-6.875 -3.3,2.676 c -1.126,-0.618 -2.319,-1.123 -3.573,-1.498 l -0.296,-4.254 h -9.726 l -0.441,4.223 c -1.257,0.367 -2.457,0.863 -3.588,1.474 l -3.224,-2.804 -6.878,6.878 2.678,3.303 c -0.619,1.126 -1.125,2.321 -1.5,3.578 l -4.26,0.296 v 9.723 l 4.223,0.44 c 0.367,1.257 0.863,2.46 1.474,3.591 l -2.804,3.221 6.878,6.878 3.3,-2.678 c 1.126,0.617 2.324,1.123 3.578,1.498 l 0.296,4.26 h 9.726 l 0.441,-4.223 c 1.257,-0.37 2.457,-0.866 3.588,-1.477 l 3.221,2.804 6.878,-6.875 -2.678,-3.303 c 0.617,-1.126 1.123,-2.324 1.498,-3.578 z m -21.94,4.474 c -5.231,0 -9.47,-4.239 -9.47,-9.47 0,-5.231 4.239,-9.469 9.47,-9.469 5.23,0 9.469,4.239 9.469,9.469 10e-4,5.23 -4.238,9.47 -9.469,9.47 z"
   id="path12" />
	<path
   style="fill:#ffffff"
   d="m 380.869,223.952 v -15.919 l -11.62,-1.16 c -0.791,-2.937 -1.953,-5.731 -3.438,-8.307 l 7.389,-9.036 -11.253,-11.25 -9.033,7.395 c -2.58,-1.484 -5.368,-2.651 -8.307,-3.44 l -1.16,-11.617 h -15.919 l -1.162,11.617 c -2.94,0.789 -5.729,1.956 -8.31,3.441 l -9.036,-7.395 -11.25,11.25 7.392,9.036 c -1.481,2.576 -2.646,5.367 -3.438,8.307 l -11.617,1.16 v 15.919 l 11.617,1.162 c 0.789,2.937 1.956,5.726 3.438,8.307 l -7.392,9.039 11.25,11.25 9.036,-7.392 c 2.578,1.484 5.369,2.647 8.307,3.441 l 1.162,11.617 h 15.919 l 1.16,-11.617 c 2.94,-0.794 5.729,-1.956 8.31,-3.441 l 9.033,7.389 11.253,-11.247 -7.389,-9.039 c 1.484,-2.581 2.646,-5.37 3.438,-8.31 z m -45.384,19.514 c -15.174,0 -27.47,-12.299 -27.47,-27.47 0,-15.173 12.296,-27.473 27.47,-27.473 15.174,0 27.473,12.299 27.473,27.473 0,15.171 -12.299,27.47 -27.473,27.47 z"
   id="path14" />
	<path
   style="fill:#ffffff"
   d="m 285.964,205.62 4.139,-15.769 -9.364,-3.678 c 0.317,-3.536 0.296,-7.095 -0.055,-10.631 l 9.328,-3.772 -4.299,-15.725 -9.934,1.498 c -1.477,-3.184 -3.272,-6.261 -5.378,-9.18 l 6.19,-7.927 -11.591,-11.47 -7.861,6.272 c -2.943,-2.074 -6.036,-3.838 -9.236,-5.28 l 1.395,-9.949 -15.772,-4.137 -3.675,9.362 c -3.535,-0.314 -7.097,-0.298 -10.633,0.058 l -3.77,-9.328 -15.73,4.3 1.5,9.934 v 0.014 c -3.184,1.477 -6.261,3.269 -9.18,5.378 l -7.925,-6.196 -11.471,11.591 6.274,7.861 c -2.075,2.941 -3.836,6.036 -5.278,9.236 l -9.952,-1.395 -4.139,15.772 9.367,3.672 c -0.314,3.535 -0.298,7.097 0.058,10.633 l -9.328,3.772 4.302,15.727 9.934,-1.503 c 1.476,3.184 3.271,6.264 5.371,9.183 l -6.19,7.925 11.589,11.47 7.861,-6.274 c 2.941,2.077 6.036,3.834 9.236,5.28 l -1.398,9.949 15.772,4.137 3.678,-9.362 c 3.536,0.312 7.095,0.296 10.631,-0.058 l 3.772,9.328 15.725,-4.305 -1.5,-9.934 c 3.187,-1.48 6.264,-3.272 9.183,-5.378 l 7.927,6.19 11.471,-11.588 -6.274,-7.864 c 2.074,-2.938 3.835,-6.036 5.28,-9.236 z m -61.141,11.688 c -19.971,0 -36.16,-16.189 -36.16,-36.16 0,-19.971 16.189,-36.16 36.16,-36.16 19.972,0 36.16,16.189 36.16,36.16 0,19.971 -16.189,36.16 -36.16,36.16 z"
   id="path16" />
</g></g>
<g
   id="g20">
</g>
<g
   id="g22">
</g>
<g
   id="g24">
</g>
<g
   id="g26">
</g>
<g
   id="g28">
</g>
<g
   id="g30">
</g>
<g
   id="g32">
</g>
<g
   id="g34">
</g>
<g
   id="g36">
</g>
<g
   id="g38">
</g>
<g
   id="g40">
</g>
<g
   id="g42">
</g>
<g
   id="g44">
</g>
<g
   id="g46">
</g>
<g
   id="g48">
</g>
</svg>
